<svg xmlns="http://www.w3.org/2000/svg" viewBox="0 0 230.11 220.8" id="cute-star-in-happy">
  <g>
    <g>
      <path fill="#fff" d="M56.31,220.8a20,20,0,0,1-20-19c0-.76-.37-7.79.27-19.46a321.29,321.29,0,0,1,4.67-39.28,326.64,326.64,0,0,1-26.07-27.56c-2-2.42-4-4.79-5.71-7-3.85-4.94-5.9-8-6.12-8.32a20,20,0,0,1,9.53-29.82c.71-.27,7.31-2.74,18.58-5.74a338.66,338.66,0,0,1,37.76-7.7c.61-1.24,1.22-2.47,1.84-3.69l.08-.18A305.53,305.53,0,0,1,87.75,24.21C91.31,18.72,95.11,13.27,99,8a20,20,0,0,1,16-8h0a20,20,0,0,1,16,8c4,5.34,7.84,10.85,11.42,16.37a308.38,308.38,0,0,1,18.08,31.93,282,282,0,0,1,38.5,8.14c2.78.8,5.66,1.67,8.57,2.6,3.17,1,6.29,2.1,9.31,3.21a20,20,0,0,1,9.8,29.88,191.34,191.34,0,0,1-11.85,15.4,330.5,330.5,0,0,1-26.06,27.55,325.79,325.79,0,0,1,4.67,39.28c.64,11.67.31,18.7.27,19.47a20,20,0,0,1-26.48,17.86c-6.17-2.12-12.31-4.43-18.23-6.86a342.45,342.45,0,0,1-34-16.16,345.86,345.86,0,0,1-33.83,16.09c-2.74,1.13-5.61,2.26-8.49,3.35l-1,.37c-2.76,1-5.68,2.09-8.93,3.21A20.11,20.11,0,0,1,56.31,220.8Z"></path>
      <path fill="#f2f2f2" d="M193.56,83.68a265.74,265.74,0,0,0-46.41-8.84,287,287,0,0,0-21.44-39.56q-5-7.68-10.65-15.28-5.62,7.52-10.55,15.11A284,284,0,0,0,89,62.05l0,.06q-3.36,6.66-6.27,13.24A316,316,0,0,0,36.64,84C26,86.77,20,89.06,20,89.06s1.76,2.63,5.28,7.15c1.45,1.86,3.2,4,5.26,6.49a314.21,314.21,0,0,0,32.54,33.24,307.25,307.25,0,0,0-6.5,47.54c-.6,10.94-.27,17.32-.27,17.32,2.87-1,5.7-2,8.48-3.05l.78-.29q4.09-1.54,8.07-3.19a322.88,322.88,0,0,0,41.42-20.57,322.43,322.43,0,0,0,41.6,20.65q8.31,3.41,17.15,6.45s.33-6.39-.27-17.33a307.15,307.15,0,0,0-6.5-47.53,313.94,313.94,0,0,0,32.53-33.24c7-8.39,10.54-13.64,10.54-13.64q-4.29-1.56-8.58-3C198.86,85.25,196.21,84.44,193.56,83.68Z"></path>
      <path fill="#fff" d="M193.56,83.68a265.74,265.74,0,0,0-46.41-8.84,287,287,0,0,0-21.44-39.56q-5-7.68-10.65-15.28-5.62,7.52-10.55,15.11A284,284,0,0,0,89,62.05l0,.06q-3.36,6.66-6.27,13.24A316,316,0,0,0,36.64,84C26,86.77,20,89.06,20,89.06s1.76,2.63,5.28,7.15c1.45,1.86,3.2,4,5.26,6.49a314.21,314.21,0,0,0,32.54,33.24,307.25,307.25,0,0,0-6.5,47.54c-.6,10.94-.27,17.32-.27,17.32,2.87-1,5.7-2,8.48-3.05l.78-.29q4.09-1.54,8.07-3.19a322.88,322.88,0,0,0,41.42-20.57,322.43,322.43,0,0,0,41.6,20.65q8.31,3.41,17.15,6.45s.33-6.39-.27-17.33a307.15,307.15,0,0,0-6.5-47.53,313.94,313.94,0,0,0,32.53-33.24c7-8.39,10.54-13.64,10.54-13.64q-4.29-1.56-8.58-3C198.86,85.25,196.21,84.44,193.56,83.68Z"></path>
      <path fill="#f2f2f2" d="M193.56,83.68a265.74,265.74,0,0,0-46.41-8.84,287,287,0,0,0-21.44-39.56q-5-7.68-10.65-15.28-5.62,7.52-10.55,15.11A284,284,0,0,0,89,62.05l0,.06q-3.36,6.66-6.27,13.24A316,316,0,0,0,36.64,84C26,86.77,20,89.06,20,89.06s1.76,2.63,5.28,7.15c1.45,1.86,3.2,4,5.26,6.49a314.21,314.21,0,0,0,32.54,33.24,307.25,307.25,0,0,0-6.5,47.54c-.6,10.94-.27,17.32-.27,17.32,2.87-1,5.7-2,8.48-3.05l.78-.29q4.09-1.54,8.07-3.19a322.88,322.88,0,0,0,41.42-20.57,322.43,322.43,0,0,0,41.6,20.65q8.31,3.41,17.15,6.45s.33-6.39-.27-17.33a307.15,307.15,0,0,0-6.5-47.53,313.94,313.94,0,0,0,32.53-33.24c7-8.39,10.54-13.64,10.54-13.64q-4.29-1.56-8.58-3C198.86,85.25,196.21,84.44,193.56,83.68Z"></path>
      <path fill="#fff" d="M193.56,83.68a265.74,265.74,0,0,0-46.41-8.84,287,287,0,0,0-21.44-39.56q-5-7.68-10.65-15.28-5.62,7.52-10.55,15.11A284,284,0,0,0,89,62.05l0,.06q-3.36,6.66-6.27,13.24A316,316,0,0,0,36.64,84C26,86.77,20,89.06,20,89.06s1.76,2.63,5.28,7.15c1.45,1.86,3.2,4,5.26,6.49a314.21,314.21,0,0,0,32.54,33.24,307.25,307.25,0,0,0-6.5,47.54c-.6,10.94-.27,17.32-.27,17.32,2.87-1,5.7-2,8.48-3.05l.78-.29q4.09-1.54,8.07-3.19a322.88,322.88,0,0,0,41.42-20.57,322.43,322.43,0,0,0,41.6,20.65q8.31,3.41,17.15,6.45s.33-6.39-.27-17.33a307.15,307.15,0,0,0-6.5-47.53,313.94,313.94,0,0,0,32.53-33.24c7-8.39,10.54-13.64,10.54-13.64q-4.29-1.56-8.58-3C198.86,85.25,196.21,84.44,193.56,83.68Z"></path>
      <path fill="#ffbe3b" d="M210.11,89.06s-3.5,5.25-10.54,13.64A313.94,313.94,0,0,1,167,135.94a307.15,307.15,0,0,1,6.5,47.53c.6,10.94.27,17.33.27,17.33q-8.84-3-17.15-6.45a322.43,322.43,0,0,1-41.6-20.65,322.88,322.88,0,0,1-41.42,20.57q-4,1.65-8.07,3.19l-.78.29c-2.78,1.05-5.61,2.06-8.48,3.05,0,0-.33-6.38.27-17.32a307.25,307.25,0,0,1,6.5-47.54A314.21,314.21,0,0,1,30.54,102.7c-2.06-2.45-3.81-4.63-5.26-6.49C21.76,91.69,20,89.06,20,89.06S26,86.77,36.64,84a316,316,0,0,1,46.09-8.6Q85.66,68.78,89,62.11l0-.06a284,284,0,0,1,15.47-26.94q4.93-7.59,10.55-15.11,5.68,7.61,10.65,15.28a287,287,0,0,1,21.44,39.56,265.74,265.74,0,0,1,46.41,8.84c2.65.76,5.3,1.57,8,2.43Q205.82,87.51,210.11,89.06Z"></path>
      <ellipse cx="79.77" cy="128.53" fill="#ff974a" rx="10.87" ry="7.67"></ellipse>
      <ellipse cx="150.34" cy="128.53" fill="#ff974a" rx="10.87" ry="7.67"></ellipse>
      <ellipse cx="91.19" cy="106.58" fill="#fff" rx="19.41" ry="19.65"></ellipse>
      <circle cx="91.19" cy="106.58" r="14.28" fill="#41849e"></circle>
      <circle cx="91.19" cy="106.58" r="7.42" fill="#232323"></circle>
      <ellipse cx="97.89" cy="106.55" fill="#fff" rx="5.26" ry="3.24"></ellipse>
      <path fill="#232323" d="M78.16 86.55l-3.32-6.16a61.62 61.62 0 0131.5-7.32l-.26 7A54.65 54.65 0 0078.16 86.55zM150.58 113.53a54.58 54.58 0 00-28.07-5.75l-.45-7a61.43 61.43 0 0131.68 6.48z"></path>
      <path fill="#232323" d="M123.88 107.4l-3.2-6.22a61.55 61.55 0 0131.63-6.72l-.39 7A54.62 54.62 0 00123.88 107.4zM97.27 136.16a78.13 78.13 0 0035-3.54c2 6.33-1.7 15.25-7.12 19.12a18.33 18.33 0 01-18.92 1C100.16 149.46 97.3 143.05 97.27 136.16z"></path>
    </g>
  </g>
</svg>
